<?xml version="1.0" encoding="utf-8"?>
<!-- Generator: Adobe Illustrator 16.0.0, SVG Export Plug-In . SVG Version: 6.00 Build 0)  -->
<!DOCTYPE svg PUBLIC "-//W3C//DTD SVG 1.1//EN" "http://www.w3.org/Graphics/SVG/1.1/DTD/svg11.dtd">
<svg version="1.1" id="Layer_1" xmlns="http://www.w3.org/2000/svg" xmlns:xlink="http://www.w3.org/1999/xlink" x="0px" y="0px"
	 width="283.46px" height="283.46px" viewBox="0 0 283.46 283.46" enable-background="new 0 0 283.46 283.46" xml:space="preserve">
<g>
	<polygon fill="#FFFFFF" points="78.233,101.944 46.527,100.256 66.091,115.718 	"/>
	<polygon fill="#FFFFFF" points="37.277,134.232 33.834,104.014 66.091,115.718 	"/>
	<polygon fill="#FFFFFF" points="78.233,101.944 79.354,131.348 66.091,115.718 	"/>
	<polygon fill="#FFFFFF" points="33.834,104.014 46.527,100.256 66.091,115.718 	"/>
	<polygon fill="#FFFFFF" points="37.277,134.232 79.354,131.348 66.091,115.718 	"/>
	<polygon fill="#FFFFFF" points="43.231,171.248 60.59,132.636 37.276,134.232 	"/>
	<polygon fill="#FFFFFF" points="69.179,180.332 79.354,131.348 60.59,132.636 	"/>
	<polygon fill="#FFFFFF" points="43.231,171.248 69.18,180.332 60.59,132.636 	"/>
	<polygon fill="#FFFFFF" points="57.088,213.074 69.179,180.332 43.231,171.248 	"/>
	<polygon fill="#FFFFFF" points="79.354,131.348 105.901,168.833 69.179,180.332 	"/>
	<polygon fill="#FFFFFF" points="78.233,101.944 79.354,131.348 104.529,103.356 	"/>
	<polygon fill="#FFFFFF" points="103.638,123.938 105.901,168.833 79.354,131.348 	"/>
	<polygon fill="#FFFFFF" points="104.529,103.356 79.354,131.348 103.638,123.938 	"/>
	<polygon fill="#FFFFFF" points="105.901,168.833 154.96,148.93 135.683,177.864 	"/>
	<polygon fill="#FFFFFF" points="103.638,123.938 154.962,148.93 105.901,168.833 	"/>
	<polygon fill="#FFFFFF" points="104.528,103.356 128.78,136.183 103.638,123.938 	"/>
	<polygon fill="#FFFFFF" points="158.106,100.75 128.78,136.183 104.529,103.356 	"/>
	<polygon fill="#FFFFFF" points="154.962,148.93 158.106,100.75 128.78,136.183 	"/>
	<polygon fill="#FFFFFF" points="202.667,127.828 154.96,148.93 164.156,172.195 	"/>
	<polygon fill="#FFFFFF" points="158.106,100.75 178.233,80.557 154.96,148.93 	"/>
	<polygon fill="#FFFFFF" points="164.156,172.195 135.683,177.864 154.96,148.93 	"/>
	<polygon fill="#FFFFFF" points="135.683,205.826 164.156,172.195 135.683,177.864 	"/>
	<polygon fill="#FFFFFF" points="150.378,224.533 135.683,205.826 164.156,172.195 	"/>
	<polygon fill="#FFFFFF" points="118.622,283.464 150.38,224.533 135.683,205.826 	"/>
	<polygon fill="#FFFFFF" points="141.166,260.438 118.622,283.464 150.378,224.533 	"/>
	<polygon fill="#FFFFFF" points="84.444,263.306 57.088,213.074 64.495,260.438 	"/>
	<polygon fill="#FFFFFF" points="69.179,180.332 57.088,213.074 84.444,263.306 	"/>
	<polygon fill="#FFFFFF" points="65.621,283.464 84.444,263.306 92.233,283.464 	"/>
	<polygon fill="#FFFFFF" points="118.622,283.464 141.166,260.438 141.902,283.464 	"/>
	<polygon fill="#FFFFFF" points="108.025,283.464 84.208,263.137 92.233,283.464 	"/>
	<polygon fill="#FFFFFF" points="141.902,283.464 158.992,283.464 141.166,260.438 	"/>
	<polygon fill="#FFFFFF" points="202.667,127.828 169.432,106.436 154.96,148.93 	"/>
	<polygon fill="#FFFFFF" points="178.233,80.557 206.068,83.799 169.432,106.436 	"/>
	<polygon fill="#FFFFFF" points="202.667,127.828 206.068,96.265 169.432,106.436 	"/>
	<polygon fill="#FFFFFF" points="178.233,80.557 204.371,54.346 206.068,83.799 	"/>
	<polygon fill="#FFFFFF" points="204.373,44.838 214.905,32.156 195.104,32.156 	"/>
	<polygon fill="#FFFFFF" points="257.803,58.398 240.033,64.486 252.291,42.575 	"/>
	<polygon fill="#FFFFFF" points="273.597,67.579 240.033,64.486 257.803,58.398 	"/>
	<polygon fill="#FFFFFF" points="240.033,104.014 237.677,87.477 263.173,87.477 	"/>
	<path fill="#FFFFFF" d="M206.068,83.799c0.633-0.794,33.965-19.313,33.965-19.313l-2.355,22.991L206.068,83.799z"/>
	<polygon fill="#FFFFFF" points="273.597,67.579 237.677,87.477 240.033,64.486 	"/>
	<polygon fill="#FFFFFF" points="204.373,54.346 240.033,64.486 206.068,83.799 	"/>
	<polygon fill="#FFFFFF" points="273.597,67.579 274.052,83.799 252.291,79.385 	"/>
	<polygon fill="#FFFFFF" points="237.677,87.477 263.013,87.477 252.291,79.385 	"/>
	<polygon fill="#FFFFFF" points="274.052,83.799 252.291,79.385 263.013,87.477 	"/>
	<polygon fill="#FFFFFF" points="204.371,54.346 252.291,42.575 240.033,64.486 	"/>
	<polygon fill="#FFFFFF" points="204.371,44.838 229.626,48.178 204.371,54.346 	"/>
	<polygon fill="#FFFFFF" points="214.905,32.156 234.425,32.156 229.626,48.178 	"/>
	<polygon fill="#FFFFFF" points="204.371,44.838 214.905,32.156 229.626,48.178 	"/>
	<polygon fill="#FFFFFF" points="234.425,32.156 252.291,42.575 229.626,48.178 	"/>
	<polygon fill="#FFFFFF" points="137.375,58.398 160.443,26.754 168.857,35.785 	"/>
	<polygon fill="#FFFFFF" points="195.104,32.156 168.857,35.785 204.371,44.838 	"/>
	<polygon fill="#FFFFFF" points="160.443,26.754 195.104,32.156 168.857,35.785 	"/>
	<polygon fill="#FFFFFF" points="147.759,22.298 182.287,0 186.728,11.146 	"/>
	<polygon fill="#FFFFFF" points="214.905,32.156 182.287,0 195.104,32.156 	"/>
	<polygon fill="#FFFFFF" points="237.677,87.477 202.667,127.828 206.068,96.265 	"/>
	<polygon fill="#FFFFFF" points="237.677,87.477 169.432,106.436 206.068,83.799 	"/>
	<polygon fill="#FFFFFF" points="65.621,283.464 64.495,260.438 84.444,263.306 	"/>
	<polygon fill="#FFFFFF" points="237.677,87.477 210.401,143.595 202.667,127.828 	"/>
	<polygon fill="#FFFFFF" points="177.771,183.816 164.156,172.195 202.667,127.828 	"/>
	<polygon fill="#FFFFFF" points="24.057,93.739 25.155,78.37 9.413,70.101 	"/>
	<polygon fill="#FFFFFF" points="14.524,95.555 24.057,93.739 33.865,104.014 	"/>
	<polygon fill="#FFFFFF" points="25.155,78.37 35.504,71.215 37.975,48.988 	"/>
	<polygon fill="#FFFFFF" points="46.527,100.256 25.155,78.37 35.504,71.215 	"/>
	<polygon fill="#FFFFFF" points="33.865,104.014 25.155,78.37 24.057,93.739 	"/>
	<polygon fill="#FFFFFF" points="46.527,100.256 25.155,78.37 33.865,104.014 	"/>
</g>
</svg>
