<?xml version="1.0" encoding="utf-8"?>
<!-- Generator: Adobe Illustrator 16.0.0, SVG Export Plug-In . SVG Version: 6.00 Build 0)  -->
<!DOCTYPE svg PUBLIC "-//W3C//DTD SVG 1.1//EN" "http://www.w3.org/Graphics/SVG/1.1/DTD/svg11.dtd">
<svg version="1.1" id="Layer_1" xmlns="http://www.w3.org/2000/svg" xmlns:xlink="http://www.w3.org/1999/xlink" x="0px" y="0px"
	 width="283.46px" height="283.46px" viewBox="0 0 283.46 283.46" enable-background="new 0 0 283.46 283.46" xml:space="preserve">
<g>
	<polygon fill="#BCA3E2" points="78.233,101.944 46.527,100.256 66.091,115.718 	"/>
	<polygon fill="#57597B" points="37.277,134.232 33.834,104.014 66.091,115.718 	"/>
	<polygon fill="#A85963" points="78.233,101.944 79.354,131.348 66.091,115.718 	"/>
	<polygon fill="#00B3E6" points="33.834,104.014 46.527,100.256 66.091,115.718 	"/>
	<polygon fill="#EA6847" points="37.277,134.232 79.354,131.348 66.091,115.718 	"/>
	<polygon fill="#EB5A95" points="43.231,171.247 60.59,132.636 37.276,134.232 	"/>
	<polygon fill="#A85963" points="69.179,180.332 79.354,131.348 60.59,132.636 	"/>
	<polygon fill="#BCA3E2" points="43.231,171.247 69.18,180.332 60.59,132.636 	"/>
	<polygon fill="#EA6847" points="57.088,213.074 69.179,180.332 43.231,171.247 	"/>
	<polygon fill="#DF5857" points="79.354,131.348 105.901,168.833 69.179,180.332 	"/>
	<polygon fill="#FD9A2B" points="78.233,101.944 79.354,131.348 104.529,103.356 	"/>
	<polygon fill="#F4C2DD" points="103.638,123.938 105.901,168.833 79.354,131.348 	"/>
	<polygon fill="#EA6847" points="104.529,103.356 79.354,131.348 103.638,123.938 	"/>
	<polygon fill="#FD9A2B" points="105.901,168.833 154.96,148.93 135.683,177.864 	"/>
	<polygon fill="#7BB0E9" points="103.638,123.938 154.962,148.93 105.901,168.833 	"/>
	<polygon fill="#EB5A95" points="104.528,103.356 128.78,136.183 103.638,123.938 	"/>
	<polygon fill="#7F5786" points="158.106,100.75 128.78,136.183 104.529,103.356 	"/>
	<polygon fill="#BCA3E2" points="154.962,148.93 158.106,100.75 128.78,136.183 	"/>
	<polygon fill="#7F5786" points="202.668,127.828 154.96,148.93 164.156,172.195 	"/>
	<polygon fill="#DF5857" points="158.106,100.75 178.233,80.557 154.96,148.93 	"/>
	<polygon fill="#F4C2DD" points="164.156,172.195 135.683,177.864 154.96,148.93 	"/>
	<polygon fill="#D75177" points="135.683,205.825 164.156,172.195 135.683,177.864 	"/>
	<polygon fill="#F76CB5" points="150.379,224.533 135.683,205.825 164.156,172.195 	"/>
	<polygon fill="#BCA3E2" points="118.622,283.465 150.381,224.533 135.683,205.825 	"/>
	<polygon fill="#EA6847" points="141.166,260.438 118.622,283.465 150.379,224.533 	"/>
	<polygon fill="#FD9A2B" points="84.444,263.306 57.088,213.074 64.495,260.438 	"/>
	<polygon fill="#3155A4" points="69.179,180.332 57.088,213.074 84.444,263.306 	"/>
	<polygon fill="#7BB0E9" points="65.621,283.465 84.444,263.306 92.233,283.465 	"/>
	<polygon fill="#00B3E6" points="118.622,283.465 141.166,260.438 141.902,283.465 	"/>
	<polygon fill="#57597B" points="108.025,283.465 84.208,263.137 92.233,283.465 	"/>
	<polygon fill="#7F5786" points="141.902,283.465 158.991,283.465 141.166,260.438 	"/>
	<polygon fill="#FC6F8F" points="202.668,127.828 169.432,106.436 154.96,148.93 	"/>
	<polygon fill="#F4C2DD" points="178.233,80.557 206.068,83.799 169.432,106.436 	"/>
	<polygon fill="#FD9A2B" points="202.668,127.828 206.068,96.265 169.432,106.436 	"/>
	<polygon fill="#D75177" points="178.233,80.557 204.371,54.346 206.068,83.799 	"/>
	<polygon fill="#7BB0E9" points="204.372,44.838 214.905,32.156 195.104,32.156 	"/>
	<polygon fill="#A85963" points="257.803,58.398 240.032,64.486 252.29,42.575 	"/>
	<polygon fill="#7F5786" points="273.597,67.579 240.032,64.486 257.803,58.398 	"/>
	<polygon fill="#7F5786" points="240.032,104.014 237.677,87.477 263.174,87.477 	"/>
	<path fill="#3155A4" d="M206.068,83.799c0.633-0.794,33.964-19.313,33.964-19.313l-2.355,22.991L206.068,83.799z"/>
	<polygon fill="#57597B" points="273.597,67.579 237.677,87.477 240.032,64.486 	"/>
	<polygon fill="#7BB0E9" points="204.372,54.346 240.032,64.486 206.068,83.799 	"/>
	<polygon fill="#F76CB5" points="273.597,67.579 274.052,83.799 252.29,79.385 	"/>
	<polygon fill="#F4C2DD" points="237.677,87.477 263.013,87.477 252.29,79.385 	"/>
	<polygon fill="#DF5857" points="274.052,83.799 252.29,79.385 263.013,87.477 	"/>
	<polygon fill="#FC6F8F" points="204.371,54.346 252.29,42.575 240.032,64.486 	"/>
	<polygon fill="#3155A4" points="204.371,44.838 229.627,48.178 204.371,54.346 	"/>
	<polygon fill="#DF5857" points="214.905,32.156 234.426,32.156 229.627,48.178 	"/>
	<polygon fill="#FD9A2B" points="204.371,44.838 214.905,32.156 229.627,48.178 	"/>
	<polygon fill="#00B3E6" points="234.426,32.156 252.29,42.575 229.627,48.178 	"/>
	<polygon fill="#DF5857" points="137.375,58.398 160.443,26.754 168.857,35.785 	"/>
	<polygon fill="#EA6847" points="195.104,32.156 168.857,35.785 204.371,44.838 	"/>
	<polygon fill="#7BB0E9" points="160.443,26.754 195.104,32.156 168.857,35.785 	"/>
	<polygon fill="#3155A4" points="147.759,22.298 182.287,0 186.728,11.146 	"/>
	<polygon fill="#A85963" points="214.905,32.156 182.287,0 195.104,32.156 	"/>
	<polygon fill="#3155A4" points="237.677,87.477 202.668,127.828 206.068,96.265 	"/>
	<polygon fill="#EA6847" points="237.677,87.477 169.432,106.436 206.068,83.799 	"/>
	<polygon fill="#F76CB5" points="65.621,283.465 64.495,260.438 84.444,263.306 	"/>
	<polygon fill="#7F5786" points="237.677,87.477 210.401,143.595 202.668,127.828 	"/>
	<polygon fill="#A85963" points="177.771,183.816 164.156,172.195 202.668,127.828 	"/>
	<polygon fill="#A85963" points="24.057,93.739 25.155,78.37 9.413,70.101 	"/>
	<polygon fill="#7F5786" points="14.524,95.555 24.057,93.739 33.865,104.014 	"/>
	<polygon fill="#3155A4" points="25.155,78.37 35.504,71.215 37.975,48.988 	"/>
	<polygon fill="#F76CB5" points="46.527,100.256 25.155,78.37 35.504,71.215 	"/>
	<polygon fill="#00B3E6" points="33.865,104.014 25.155,78.37 24.057,93.739 	"/>
	<polygon fill="#FD9A2B" points="46.527,100.256 25.155,78.37 33.865,104.014 	"/>
</g>
</svg>
